# xmcd
#
# Track frame offsets: 
#        150
#        17142
#        35990
#        62213
#        74908
#        95866
#        115834
#        133547
#        151907
#        176643
#        191717
#        216475
#        235295
#        257252
#        276552
#        296502
#        311802
#
# Disc length: 4346 seconds
#
# Revision: 0
# Processed by: cddbd v1.5.1PL2 Copyright (c) Steve Scherf et al.
# Submitted via: ExactAudioCopy v0.95a3
#
DISCID=1710f811
DTITLE=Boyz 2 man - The Greatest Hits A
DYEAR=2005
DGENRE=Blues
TTITLE0=Dreams
TTITLE1=Thank You in Advence
TTITLE2=End of Road
TTITLE3=In the Still of the Nite
TTITLE4=One Sweet Day
TTITLE5=Pass You By
TTITLE6=Motownphilly
TTITLE7=I'll Make Love to You
TTITLE8=On Bended Knee
TTITLE9=Water Runs Knee
TTITLE10=Doin' Just Fine
TTITLE11=I Do
TTITLE12=4 Seasons of Loneliness
TTITLE13=Do You Rember
TTITLE14=Please Don't Go
TTITLE15=This is My Heart
TTITLE16=Yesterday
EXTD=
EXTT0=
EXTT1=
EXTT2=
EXTT3=
EXTT4=
EXTT5=
EXTT6=
EXTT7=
EXTT8=
EXTT9=
EXTT10=
EXTT11=
EXTT12=
EXTT13=
EXTT14=
EXTT15=
EXTT16=
PLAYORDER=
